<svg xmlns="http://www.w3.org/2000/svg" width="410" height="404" viewBox="0 0 410 404" fill="none">
  <path d="M399.641 59.5246L216.461 388.545C211.675 397.192 199.285 397.258 194.404 388.669L10.5817 59.5563C5.38148 50.337 12.3565 38.9551 22.699 39.0409L205.343 40.6847C206.793 40.697 208.231 40.4372 209.576 39.9187L386.283 5.48797C396.504 3.12875 404.899 13.7923 400.546 23.3356L331.19 176.757C327.545 184.752 316.072 185.273 311.574 177.61L273.05 110.739C268.357 102.745 256.448 102.232 251.12 109.686L174.142 214.939C169.018 222.122 173.605 232.308 182.275 233.207L231.62 238.305C240.514 239.226 245.212 249.42 239.671 256.658L179.046 338.104C173.458 345.407 162.129 344.27 158.203 335.768L75.7015 155.323C72.1229 147.462 78.612 138.663 86.9873 139.354L135.999 143.465C144.468 144.168 149.674 134.693 144.513 127.855L113.19 85.4591C107.438 77.5721 114.544 66.7275 124.122 68.1546L292.29 93.7567C301.393 95.1042 306.862 105.154 302.204 113.16L231.487 231.857C227.063 239.45 216.591 239.931 212.229 232.906L183.378 188.274C178.707 180.736 167.92 181.423 164.352 189.478L121.037 290.177C117.433 298.306 106.455 299.09 101.517 291.619L3.21401 144.74C-1.59288 137.219 4.06724 127.201 12.4813 127.968L197.352 145.838C198.821 145.977 200.3 145.737 201.65 145.142L375.346 70.4684C385.65 66.0179 395.215 76.8056 389.673 86.0388L324.478 196.809C320.747 203.07 311.068 203.512 307.124 197.029L265.977 129.096C261.059 120.667 248.59 120.259 243.922 128.515L168.577 261.8C164.018 269.849 152.631 270.421 147.877 262.682L94.4483 173.126C89.7752 165.44 97.0441 155.863 106.094 157.233L152.105 164.193C161.01 165.53 166.509 175.58 161.819 183.517L121.27 249.564C116.825 256.888 105.897 256.914 101.51 249.61L24.153 120.093C19.7427 112.749 25.3802 103.59 33.7213 103.89L212.671 110.37C214.135 110.422 215.594 110.194 216.924 109.704L389.467 49.4567C399.793 45.9914 409.331 56.8386 404.981 66.4105L330.482 228.387C326.803 236.384 315.287 236.863 310.866 229.319L271.424 163.188C266.697 155.049 255.333 155.759 250.875 164.077L179.268 296.91C174.553 305.279 162.575 305.851 157.989 297.773L108.838 210.395C104.289 202.374 111.176 192.925 120.303 194.12L165.871 200.15C174.794 201.321 180.112 211.103 175.275 218.949L139.721 278.141C135.306 285.49 124.287 285.798 119.763 278.614L57.0126 176.713C52.5662 169.642 58.1249 160.338 66.4438 160.77L206.177 167.93C207.648 168.001 209.114 167.785 210.452 167.301L399.641 59.5246Z" fill="#61DAFB"/>
</svg>
